<svg version="1.1" id="Layer_1" xmlns="http://www.w3.org/2000/svg" xmlns:xlink="http://www.w3.org/1999/xlink" x="0px" y="0px"
	 width="100%" viewBox="0 0 688 345" enable-background="new 0 0 688 345" xml:space="preserve">
<path fill="#FEFEFE" opacity="1.000000" stroke="none" 
	d="
M514.000000,346.000000 
	C344.207611,346.000000 174.915222,345.988495 5.622885,346.079224 
	C2.102124,346.081116 0.882864,345.649597 0.887880,341.624878 
	C1.027625,229.485519 1.024315,117.345909 0.893566,5.206514 
	C0.889226,1.483530 1.802170,0.911465 5.291592,0.912951 
	C231.736786,1.009394 458.182037,1.013798 684.627197,0.888998 
	C688.655945,0.886777 689.082642,2.107815 689.079590,5.625133 
	C688.982788,117.597969 688.975769,229.570938 689.102234,341.543701 
	C689.106628,345.398315 688.103149,346.096252 684.458191,346.088165 
	C627.805664,345.962128 571.152771,346.000000 514.000000,346.000000 
z"/>
<path fill="#A1AAB9" opacity="1.000000" stroke="none" 
	d="
M370.392609,131.310730 
	C369.026825,131.963486 368.027557,131.945877 367.028595,131.955643 
	C363.866516,131.986588 360.345703,131.159637 357.631927,132.281326 
	C354.120514,133.732727 356.524719,137.861450 355.756683,140.741165 
	C353.896027,147.717407 349.106689,151.935379 341.842072,152.018829 
	C332.849518,152.122147 323.852478,151.924240 314.862549,152.108643 
	C311.594849,152.175674 311.277405,151.314392 311.716553,148.146286 
	C314.656006,126.940445 300.848480,109.269302 279.714020,108.457466 
	C258.832794,107.655357 242.633804,125.816765 245.429031,146.572113 
	C246.177246,152.127716 245.956238,152.559860 240.330963,151.955139 
	C233.541687,151.225296 228.289886,145.635483 228.193573,137.765915 
	C227.942917,117.283363 227.867950,96.791718 228.208664,76.311790 
	C228.381287,65.935448 234.001450,61.160278 244.602493,61.105618 
	C254.428696,61.054943 264.256622,61.007915 274.081024,61.149410 
	C276.785217,61.188354 278.440826,60.403908 279.442139,57.828091 
	C280.825439,54.269886 282.462189,50.810375 283.983215,47.305496 
	C284.754425,45.528488 285.021179,44.164124 282.260284,44.138103 
	C277.741058,44.095512 275.561127,41.651318 275.812866,37.144802 
	C276.079834,32.365944 279.363586,31.051842 283.376038,31.031876 
	C298.365204,30.957283 313.354919,30.999329 328.344452,30.998758 
	C336.338867,30.998455 344.333252,30.998978 352.327667,31.002003 
	C357.127472,31.003819 361.015106,32.926197 364.092407,36.576157 
	C366.469604,39.395767 366.664032,42.332596 364.296448,45.173134 
	C361.971741,47.962280 359.121887,48.650410 355.898468,46.586262 
	C355.059052,46.048725 354.272797,45.411781 353.390411,44.960690 
	C350.816986,43.645058 349.123077,44.183613 349.117340,47.353939 
	C349.087006,64.175430 349.109497,80.997025 349.089874,97.818550 
	C349.088135,99.285400 349.712036,100.368462 350.780029,101.264519 
	C354.794678,104.632835 356.507050,109.002457 355.955200,114.127777 
	C355.544891,117.938835 356.997772,119.293610 360.711975,118.819382 
	C363.508057,118.462357 366.340454,118.389862 369.836121,118.400932 
	C370.805725,122.620834 370.017609,126.652344 370.392609,131.310730 
z"/>
<path fill="#A1A9B8" opacity="1.000000" stroke="none" 
	d="
M370.008179,118.013931 
	C373.235535,102.937515 381.435333,91.775146 395.607086,85.166473 
	C421.354858,73.159622 453.433502,91.956123 456.223694,120.045258 
	C458.727203,145.248184 440.674744,167.791519 414.473236,168.746750 
	C394.313721,169.481705 377.517609,157.269424 371.355804,137.556595 
	C370.861389,135.974869 370.529907,134.342209 370.074341,132.350891 
	C370.025940,131.968567 370.001129,131.997040 369.988922,132.011414 
	C371.902954,130.316177 374.283783,130.510208 376.589722,130.500305 
	C385.708130,130.461227 394.826660,130.492218 403.945160,130.481064 
	C405.602722,130.479034 407.267334,130.531006 408.910248,130.277603 
	C411.744659,129.840454 414.106995,128.771774 414.183960,125.413162 
	C414.259094,122.135826 412.052277,120.798515 409.273254,120.078140 
	C407.165680,119.531837 405.005035,119.527122 402.848938,119.522484 
	C394.227814,119.503937 385.606598,119.540306 376.985626,119.499725 
	C374.848511,119.489662 372.650726,119.715645 370.334656,118.240524 
	C369.977509,117.972099 369.997925,117.999977 370.008179,118.013931 
z"/>
<path fill="#3D424A" opacity="1.000000" stroke="none" 
	d="
M448.016937,223.370270 
	C443.679291,215.503571 440.125946,213.175430 433.127563,213.767105 
	C426.202332,214.352600 421.885254,218.263336 419.765320,226.497803 
	C418.202240,232.569412 418.312195,238.692032 420.946167,244.545227 
	C424.815399,253.143356 435.573273,256.393311 443.248474,251.404190 
	C445.604126,249.872955 447.060852,247.757721 447.965149,245.203537 
	C448.969391,242.367004 448.824890,240.307495 444.885590,240.911453 
	C443.746094,241.086136 442.524567,240.761230 441.396454,240.968781 
	C436.618561,241.847885 435.552734,239.631821 435.800293,235.265930 
	C435.972137,232.235825 436.357239,230.789246 439.882690,230.978119 
	C445.697571,231.289673 451.544495,231.176407 457.371338,231.011078 
	C459.975555,230.937180 460.823914,231.745834 460.775940,234.390732 
	C460.624847,242.718750 460.728851,251.051270 460.713776,259.382019 
	C460.710571,261.152283 461.165070,263.537750 458.214020,263.006104 
	C455.933746,262.595306 452.111450,265.164215 451.833313,260.103821 
	C451.783356,259.194397 451.208618,258.313751 450.744263,257.064972 
	C442.505890,266.113525 432.691559,266.214996 422.707428,262.023438 
	C412.053192,257.550568 406.999542,248.639099 406.064941,237.359955 
	C404.947327,223.872772 408.772797,212.306152 421.337463,205.784958 
	C434.699860,198.849747 453.336609,202.978745 458.581848,218.145081 
	C460.312012,223.147736 460.051605,223.521652 454.902252,223.535980 
	C452.736969,223.542023 450.571594,223.495590 448.016937,223.370270 
z"/>
<path fill="#3B4048" opacity="1.000000" stroke="none" 
	d="
M50.108871,263.074280 
	C46.031395,263.704590 44.833191,262.502625 44.890606,258.605377 
	C45.138447,241.782349 45.070133,224.952972 44.930870,208.127457 
	C44.905159,205.021088 45.502647,203.774551 48.949223,203.911285 
	C56.434822,204.208252 63.945335,203.845291 71.434479,204.091782 
	C86.367081,204.583267 96.150017,214.264572 97.031822,229.220276 
	C97.538567,237.815048 96.970016,246.130981 91.422516,253.406769 
	C86.875656,259.370178 80.880844,262.527039 73.582130,262.873108 
	C65.934563,263.235687 58.260086,263.031036 50.108871,263.074280 
z"/>
<path fill="#A1AAB9" opacity="1.000000" stroke="none" 
	d="
M296.733459,122.234573 
	C305.682739,131.235855 307.654327,141.614227 303.115784,152.770599 
	C298.893433,163.149780 290.253723,168.227600 279.266968,168.843140 
	C267.152618,169.521805 256.070251,160.696701 252.584351,148.161728 
	C249.588150,137.387680 255.182251,124.581139 265.432617,118.748314 
	C275.695343,112.908440 286.675446,114.053711 296.733459,122.234573 
z"/>
<path fill="#3E434A" opacity="1.000000" stroke="none" 
	d="
M270.951263,262.396576 
	C259.191803,263.885925 259.175415,263.891205 255.727295,253.174515 
	C252.624802,243.532074 249.662994,233.842865 246.428787,224.245163 
	C245.336243,221.002945 246.177917,220.232117 249.429459,220.210556 
	C257.611816,220.156311 257.671112,220.007126 259.780823,227.650482 
	C261.678467,234.525620 263.424377,241.442627 265.567230,249.596939 
	C267.872040,240.353989 270.228821,232.337112 271.773468,224.166718 
	C272.691132,219.312424 275.804321,220.320114 278.807617,220.282471 
	C281.736877,220.245743 284.446716,219.608109 285.295593,224.183212 
	C286.803253,232.309509 289.267334,240.258377 291.614685,249.382980 
	C293.937988,240.828003 296.036591,233.258835 298.039795,225.664505 
	C299.222595,221.180466 306.457855,218.051651 310.445190,220.360138 
	C311.705078,221.089569 311.147766,222.083664 310.874146,222.954926 
	C306.943787,235.470825 302.947144,247.966019 299.057373,260.494415 
	C298.469147,262.389008 297.564087,263.271149 295.529266,263.111633 
	C293.707520,262.968811 291.844788,262.906921 290.037415,263.122192 
	C287.035797,263.479767 285.710144,262.414642 284.997955,259.342194 
	C283.245514,251.782120 281.035065,244.328217 277.806366,236.771469 
	C275.589355,245.185043 273.372375,253.598633 270.951263,262.396576 
z"/>
<path fill="#3C4149" opacity="1.000000" stroke="none" 
	d="
M596.433411,249.333801 
	C595.318115,243.492920 595.104248,238.073608 596.799072,232.680420 
	C601.055054,219.137817 615.808655,214.947632 627.156555,224.916275 
	C627.156555,218.953644 627.301270,213.582184 627.100281,208.223709 
	C626.986633,205.194046 627.550537,203.832230 631.081543,203.895386 
	C639.003418,204.037079 639.007141,203.821930 639.006958,211.619461 
	C639.006531,227.423050 638.914612,243.227615 639.081543,259.029449 
	C639.115845,262.275330 638.239929,263.714813 634.979797,263.059204 
	C632.155457,262.491241 627.611511,265.346924 627.519775,258.562347 
	C621.915100,264.416229 615.572754,265.393921 608.621216,263.249664 
	C601.895935,261.175201 598.621826,255.978912 596.433411,249.333801 
z"/>
<path fill="#3D4249" opacity="1.000000" stroke="none" 
	d="
M557.530884,232.537018 
	C557.918091,242.433807 556.670898,251.935608 558.431213,261.344482 
	C558.509827,261.764496 558.562195,262.352051 558.339478,262.637329 
	C557.423157,263.811188 547.547485,263.093292 546.901917,261.584167 
	C545.877319,259.188995 544.952393,260.193329 543.598267,261.097961 
	C538.924561,264.220520 533.662598,264.634460 528.293884,263.967957 
	C522.086243,263.197357 517.904297,258.905914 517.223511,252.929535 
	C516.555847,247.068298 519.384705,242.435120 525.167664,240.049973 
	C529.380493,238.312454 533.939453,238.350143 538.340454,237.570053 
	C541.384583,237.030472 545.053223,236.996811 545.480896,232.777893 
	C545.733154,230.289307 544.614685,228.168854 541.868042,227.570633 
	C538.028687,226.734390 534.170654,226.303787 531.451660,230.028656 
	C529.394592,232.846741 523.444763,234.700500 520.108154,233.499268 
	C518.141541,232.791229 518.837219,231.343796 519.130188,230.218643 
	C520.307983,225.695633 523.350769,222.703766 527.615967,221.113144 
	C534.688782,218.475388 541.896851,218.486496 549.113525,220.619934 
	C554.821106,222.307266 557.431274,226.279648 557.530884,232.537018 
z"/>
<path fill="#3D4249" opacity="1.000000" stroke="none" 
	d="
M329.975281,228.922791 
	C328.212219,230.274918 328.941193,233.179749 326.771362,233.397003 
	C323.651550,233.709412 320.445892,233.650696 317.328308,233.297028 
	C315.747070,233.117645 316.422485,231.538010 316.702087,230.415192 
	C318.166077,224.535736 322.465454,221.659439 327.860657,220.199265 
	C333.570282,218.653961 339.368958,218.739960 345.132507,220.124634 
	C352.043121,221.784866 354.806244,225.341995 355.026978,232.456528 
	C355.320435,241.914978 354.165802,251.415741 355.842194,260.836609 
	C355.947021,261.425598 355.983368,262.223694 355.673889,262.650879 
	C354.890320,263.732452 344.772186,263.152222 344.452087,261.876587 
	C343.734161,259.015503 342.675507,260.033875 341.144684,261.062958 
	C336.641235,264.090393 331.559021,264.591309 326.333832,264.048035 
	C319.826904,263.371582 315.490479,259.039612 314.949829,252.854691 
	C314.357697,246.080902 317.245728,242.026810 323.811432,239.735458 
	C328.280914,238.175644 332.990112,238.311203 337.518341,237.271042 
	C340.541260,236.576614 343.584900,236.017715 343.033020,231.763535 
	C342.518646,227.798447 339.462158,227.416107 336.427704,227.100525 
	C334.219910,226.870895 332.128967,227.346786 329.975281,228.922791 
z"/>
<path fill="#3F444B" opacity="1.000000" stroke="none" 
	d="
M400.414185,220.274200 
	C403.041412,220.087509 402.796112,221.276794 402.249451,222.722855 
	C396.211792,238.694427 390.419098,254.764206 384.049072,270.601868 
	C381.394073,277.202850 370.980316,280.840088 364.760010,277.794739 
	C361.518799,276.207886 363.699097,272.719757 363.368469,270.128143 
	C363.075623,267.832458 365.026581,268.237122 366.516205,268.240143 
	C374.573212,268.256348 376.217499,265.830627 373.357239,258.161255 
	C369.125153,246.813583 365.000366,235.423279 360.559174,224.157837 
	C359.273834,220.897385 359.860260,220.214478 363.222412,220.206009 
	C371.772003,220.184479 371.756012,220.057785 374.371765,228.069489 
	C376.632599,234.994293 378.934448,241.905716 381.527740,249.760651 
	C384.215759,241.359497 386.983734,233.932617 388.897552,226.291779 
	C390.150726,221.288559 392.520111,219.297058 397.505219,220.250427 
	C398.307434,220.403854 399.164215,220.272293 400.414185,220.274200 
z"/>
<path fill="#3E434B" opacity="1.000000" stroke="none" 
	d="
M238.881256,255.669373 
	C232.437073,266.098206 218.191833,265.653351 210.523666,261.533142 
	C201.582611,256.729034 197.282074,244.437225 200.886398,234.256363 
	C204.756210,223.325592 214.268692,217.681976 225.442368,219.687683 
	C235.632248,221.516800 242.314499,230.449280 242.305466,241.799362 
	C242.303329,244.479904 241.193329,244.775772 239.035187,244.755035 
	C231.207672,244.679886 223.370499,244.944183 215.554016,244.641159 
	C211.139709,244.470047 211.331833,246.599533 212.397186,249.474304 
	C214.777908,255.898514 224.562088,257.743439 229.446121,252.189911 
	C232.780746,248.398148 236.796005,249.495438 239.915009,250.286606 
	C242.893356,251.042084 239.387634,253.549744 238.881256,255.669373 
z"/>
<path fill="#3E434A" opacity="1.000000" stroke="none" 
	d="
M502.233856,263.082397 
	C497.652008,263.742798 499.455658,260.218689 498.454987,258.083923 
	C494.807495,261.875275 490.711823,264.327332 485.414368,264.293365 
	C475.928375,264.232544 470.899017,260.333435 470.239471,250.829102 
	C469.595306,241.546158 470.040009,232.188278 469.981476,222.863449 
	C469.972076,221.369522 470.260803,220.533096 472.079193,220.228165 
	C480.429596,218.827820 481.841064,219.919189 481.851807,228.253998 
	C481.859528,234.248688 481.784668,240.246124 481.941528,246.237228 
	C482.093170,252.028107 484.255310,254.660614 488.717224,254.976501 
	C493.972565,255.348541 497.553162,252.569183 497.933136,246.802597 
	C498.414093,239.504181 498.593933,232.135361 498.153992,224.842148 
	C497.774292,218.547562 501.956055,220.632401 505.006927,220.266495 
	C508.531250,219.843796 510.369049,220.497360 510.205292,224.906036 
	C509.822266,235.216843 510.083527,245.551559 510.084381,255.876602 
	C510.084991,263.082306 510.085358,263.082306 502.233856,263.082397 
z"/>
<path fill="#3E434B" opacity="1.000000" stroke="none" 
	d="
M180.032013,236.870926 
	C181.181946,232.987045 182.298737,229.508286 183.390732,226.021790 
	C184.989212,220.918167 189.888092,218.546738 195.011124,220.279526 
	C197.210495,221.023422 196.070877,222.382111 195.711990,223.458786 
	C191.614761,235.750610 187.385986,247.999191 183.384872,260.321838 
	C182.680206,262.492035 181.681580,263.048340 179.544952,263.137390 
	C169.390945,263.560577 169.352325,263.641998 166.130112,254.254013 
	C162.628784,244.052856 159.350632,233.772522 155.678650,223.634109 
	C154.600571,220.657547 155.398605,220.056030 158.080460,220.273132 
	C158.245773,220.286514 158.413239,220.278458 158.579514,220.273926 
	C166.815964,220.049515 166.827744,220.045731 169.311111,227.916229 
	C171.381607,234.478302 173.420181,241.050491 175.719070,248.405853 
	C178.140182,244.493622 178.664795,240.719208 180.032013,236.870926 
z"/>
<path fill="#43474F" opacity="1.000000" stroke="none" 
	d="
M566.430420,258.735596 
	C566.429565,247.299103 566.478271,236.333084 566.396118,225.368057 
	C566.373291,222.326263 566.196228,219.575455 570.623352,220.227936 
	C573.913940,220.712891 578.972046,218.390778 577.893311,225.210175 
	C577.826294,225.634155 578.039612,226.102509 578.264587,227.318207 
	C581.153198,222.512283 585.020691,220.044632 589.987610,219.266983 
	C592.865173,218.816437 594.502686,219.486664 594.125916,222.811768 
	C593.958618,224.288116 593.992920,225.808289 594.121826,227.292404 
	C594.322998,229.608398 593.678284,230.317673 591.094910,230.264374 
	C582.809875,230.093384 579.106750,233.357422 578.489868,241.578949 
	C578.031006,247.694214 578.187378,253.863876 578.263916,260.006866 
	C578.292786,262.331329 577.666565,263.380859 575.207275,263.128204 
	C573.563110,262.959351 571.864563,262.920074 570.231079,263.133942 
	C567.063660,263.548584 565.967346,262.189575 566.430420,258.735596 
z"/>
<path fill="#3F444B" opacity="1.000000" stroke="none" 
	d="
M132.727997,225.790710 
	C132.911453,228.695511 133.024979,230.394485 129.260757,230.244980 
	C121.231003,229.926041 117.387032,233.867188 117.052757,242.035141 
	C116.821259,247.691803 116.759483,253.373352 117.020149,259.025421 
	C117.174797,262.378815 116.053787,263.549347 112.821426,263.114349 
	C111.512062,262.938141 110.136391,262.927673 108.830635,263.116516 
	C105.663269,263.574677 104.939713,262.229187 104.986549,259.210144 
	C105.162292,247.881729 105.147362,236.547775 105.001099,225.218521 
	C104.958870,221.947159 105.135391,219.670105 109.387497,220.214233 
	C112.694290,220.637390 117.273376,218.848663 116.205864,225.166122 
	C116.136101,225.578949 116.353081,226.040237 116.569611,227.176529 
	C119.151123,223.990860 121.669312,221.436462 125.090508,220.136795 
	C131.256790,217.794281 132.701385,218.800934 132.727997,225.790710 
z"/>
<path fill="#3B4048" opacity="1.000000" stroke="none" 
	d="
M149.299561,231.024017 
	C149.299606,240.680405 149.158951,249.843246 149.375427,258.997681 
	C149.452728,262.266663 148.513794,263.539215 145.227905,263.110901 
	C143.590134,262.897430 141.895782,262.979553 140.238220,263.092316 
	C138.253296,263.227356 137.670670,262.352234 137.678726,260.464600 
	C137.732010,247.974579 137.721497,235.484207 137.690659,222.994034 
	C137.686142,221.165039 138.278091,220.113174 140.273056,220.294357 
	C140.438004,220.309341 140.606567,220.301208 140.772324,220.288818 
	C149.304916,219.651917 149.304901,219.651749 149.299561,231.024017 
z"/>
<path fill="#3E434A" opacity="1.000000" stroke="none" 
	d="
M137.658203,210.636719 
	C137.993927,208.194000 136.557907,204.987473 138.573685,204.383392 
	C141.592377,203.478760 145.431320,203.246780 148.256042,204.382950 
	C150.718430,205.373367 149.023285,209.073166 149.303864,211.555542 
	C149.540070,213.645294 148.159531,213.923950 146.472198,213.865448 
	C144.331696,213.791245 142.181961,213.755890 140.045059,213.869980 
	C137.900497,213.984467 137.603851,212.725357 137.658203,210.636719 
z"/>
<path fill="#282828" opacity="1.000000" stroke="none" 
	d="
M57.012535,303.706512 
	C56.713196,299.639038 58.410912,297.235596 61.884933,296.283020 
	C64.501778,295.565491 66.739227,296.460358 68.428436,298.643280 
	C70.931717,301.878235 69.625214,305.596649 67.831360,307.829742 
	C66.021698,310.082428 62.327229,309.138580 59.610798,307.653748 
	C58.271923,306.921936 57.558620,305.539764 57.012535,303.706512 
z"/>
<path fill="#2C2C2C" opacity="1.000000" stroke="none" 
	d="
M475.924194,302.054932 
	C479.564484,302.320404 478.466400,304.376770 477.684204,305.920593 
	C476.406311,308.442780 474.117096,309.396545 471.400116,308.720673 
	C468.279724,307.944458 466.544159,305.630157 466.497589,302.557129 
	C466.451141,299.492310 468.080414,297.120789 471.197205,296.254852 
	C473.168396,295.707123 475.168579,295.730988 476.755981,297.507446 
	C475.574341,299.702271 473.830933,297.648956 472.421631,298.108063 
	C469.875977,298.937378 468.384247,300.442657 468.918427,303.248352 
	C469.440643,305.991272 471.257874,307.334412 473.949707,306.660614 
	C475.277313,306.328339 477.657562,305.369476 474.323975,303.852844 
	C473.266754,303.371857 473.420349,303.034241 475.924194,302.054932 
z"/>
<path fill="#282828" opacity="1.000000" stroke="none" 
	d="
M503.869324,297.758911 
	C506.402222,294.647308 509.104095,295.898712 511.312653,297.461487 
	C513.434753,298.963043 513.007690,301.231476 511.379852,303.103363 
	C509.479980,305.287964 513.302917,306.372284 512.260925,308.560547 
	C509.731201,308.401093 509.824677,304.992523 507.719208,304.660522 
	C504.413788,304.139221 507.393555,308.451843 504.468109,308.678894 
	C503.080170,305.304718 504.195068,301.674866 503.869324,297.758911 
z"/>
<path fill="#282828" opacity="1.000000" stroke="none" 
	d="
M623.806458,306.594788 
	C625.935486,303.864716 623.349426,303.804626 622.195740,303.065155 
	C620.684875,302.096710 618.827759,301.542358 618.870361,299.225525 
	C618.904480,297.370178 620.218140,296.550110 621.633484,296.148682 
	C623.750427,295.548309 625.421204,296.375153 626.412964,298.104370 
	C626.233215,299.099823 625.772766,299.151062 625.289734,299.011749 
	C623.973511,298.632050 622.322266,296.990143 621.416382,298.869904 
	C620.437683,300.900635 622.904907,301.080536 624.026428,301.647156 
	C625.981934,302.635162 627.490356,303.791443 627.039124,306.149109 
	C626.678345,308.033752 624.963074,308.754364 623.332275,308.932922 
	C621.086609,309.178711 619.238281,308.441437 618.772705,305.548279 
	C620.793579,305.152954 621.689148,307.705566 623.806458,306.594788 
z"/>
<path fill="#2C2C2C" opacity="1.000000" stroke="none" 
	d="
M210.164948,298.281738 
	C214.433838,295.034637 214.761658,295.070923 217.649460,298.819305 
	C217.157608,298.941498 216.554260,299.295929 216.281235,299.124451 
	C214.981079,298.307800 213.341782,297.165009 212.496552,298.992554 
	C211.548447,301.042511 214.079971,300.976959 215.153412,301.658417 
	C216.698517,302.639313 218.463470,303.242889 218.179153,305.631897 
	C217.998734,307.147705 217.059433,308.071655 215.894318,308.650482 
	C214.073654,309.555115 212.341248,308.824951 210.775558,307.793976 
	C210.049789,307.316040 209.501923,306.577057 210.225632,305.739166 
	C210.695648,305.195007 211.362671,305.232422 211.933167,305.802979 
	C213.122772,306.992615 214.678253,307.755615 215.605576,305.933319 
	C216.674316,303.833191 214.324631,303.743530 213.193069,303.067688 
	C211.466354,302.036346 209.607346,301.160553 210.164948,298.281738 
z"/>
<path fill="#282828" opacity="1.000000" stroke="none" 
	d="
M375.482910,306.085022 
	C373.472778,306.240692 373.960449,308.991394 371.557495,308.525360 
	C372.042999,304.306671 374.552185,300.825195 376.167267,297.042542 
	C376.851929,295.439056 378.225250,296.083191 378.768188,297.244476 
	C380.461090,300.865814 381.955505,304.579956 383.123444,308.639954 
	C381.005737,306.414520 378.688904,305.522003 375.482910,306.085022 
z"/>
<path fill="#2C2C2C" opacity="1.000000" stroke="none" 
	d="
M401.257263,302.632263 
	C403.534668,305.231750 402.992126,307.318359 400.440735,308.509277 
	C397.723633,309.777527 395.500092,308.780334 394.052032,306.304016 
	C394.769226,305.209229 395.411957,305.189392 395.932434,305.699432 
	C397.098755,306.842499 398.732941,307.691956 399.661255,306.222504 
	C400.939789,304.198761 398.941589,303.511719 397.372253,302.858185 
	C395.233307,301.967529 393.329834,300.623718 394.711212,298.033997 
	C395.937378,295.735168 398.042542,295.515167 400.401154,296.621552 
	C399.757111,298.861725 396.468140,297.111237 396.757812,299.443237 
	C397.023041,301.578430 399.601715,301.315735 401.257263,302.632263 
z"/>
<path fill="#252525" opacity="1.000000" stroke="none" 
	d="
M111.659683,305.085999 
	C111.903107,306.449036 113.696159,307.462555 112.297295,308.438110 
	C111.027016,309.323944 110.964996,307.487579 110.257584,307.040070 
	C106.882339,304.905060 103.958420,305.688049 100.848122,309.919830 
	C101.544914,304.207886 103.948158,300.632416 105.799889,296.907501 
	C106.604401,295.289154 107.736076,296.274628 108.289459,297.495667 
	C109.381691,299.905701 110.404617,302.347198 111.659683,305.085999 
z"/>
<path fill="#282828" opacity="1.000000" stroke="none" 
	d="
M229.418228,296.604736 
	C231.992355,296.317780 234.467300,295.223236 236.579132,297.042053 
	C235.278778,299.516418 231.400787,296.073578 231.132187,299.797577 
	C230.919266,302.749329 234.529022,300.161041 235.094391,302.341125 
	C234.654724,304.458130 230.662140,301.860809 231.109436,305.175262 
	C231.608658,308.874542 235.404648,305.321869 236.536118,307.628937 
	C230.844147,310.527374 228.979416,309.501831 228.991318,303.409241 
	C228.995514,301.256775 229.084412,299.104462 229.418228,296.604736 
z"/>
<path fill="#252525" opacity="1.000000" stroke="none" 
	d="
M85.812607,306.871643 
	C89.767456,303.883911 86.392883,299.427887 89.272789,295.057190 
	C90.277130,299.878754 90.932350,303.756226 88.718193,307.303833 
	C86.938217,310.155731 81.973625,309.371216 81.109848,306.099243 
	C80.259964,302.879913 79.882912,299.421082 81.522049,295.649902 
	C83.590721,298.023712 82.462906,300.404541 82.813820,302.509552 
	C83.113266,304.305817 82.220444,306.795410 85.812607,306.871643 
z"/>
<path fill="#252525" opacity="1.000000" stroke="none" 
	d="
M564.589233,308.603668 
	C559.486816,305.029602 562.519531,300.439850 562.096985,296.364319 
	C564.904846,298.215790 563.351990,300.943542 563.809143,303.254303 
	C564.115173,304.800995 563.640320,306.883759 566.147888,306.886017 
	C568.704102,306.888336 568.807312,304.963196 568.946350,303.053314 
	C569.114380,300.744720 568.384338,298.284363 569.775085,295.591949 
	C572.888245,303.844086 570.988831,308.569794 564.589233,308.603668 
z"/>
<path fill="#252525" opacity="1.000000" stroke="none" 
	d="
M249.467422,307.024536 
	C248.769440,307.749542 248.329224,308.478119 247.819168,308.530853 
	C246.875595,308.628326 246.923660,307.762695 247.186050,307.173553 
	C248.663834,303.855499 250.140411,300.534698 251.728622,297.268890 
	C252.726578,295.216797 253.759583,296.043488 254.441681,297.516541 
	C256.073639,301.040802 257.606720,304.610901 258.859833,308.556122 
	C255.954346,306.323486 253.107101,304.981079 249.467422,307.024536 
z"/>
<path fill="#1F1F1F" opacity="1.000000" stroke="none" 
	d="
M528.242432,303.249390 
	C526.124084,303.186005 526.019287,304.301941 526.078613,305.556793 
	C526.150269,307.074890 527.309875,306.748840 528.231873,306.857849 
	C529.333374,306.988159 530.575745,306.460724 531.702759,307.763123 
	C529.356384,309.545441 526.858765,308.856628 524.470581,308.359802 
	C523.798828,308.220062 523.520203,297.086456 524.259888,296.753296 
	C526.636169,295.682983 529.080322,295.651428 531.505493,296.794586 
	C531.076111,298.271027 530.123535,297.868652 529.419678,298.073364 
	C528.228943,298.419678 526.201904,296.997284 526.063293,299.641602 
	C525.947083,301.859070 527.671631,301.085083 528.788574,301.454987 
	C530.613220,302.059387 530.507324,302.760925 528.242432,303.249390 
z"/>
<path fill="#1F1F1F" opacity="1.000000" stroke="none" 
	d="
M290.089050,305.500824 
	C291.297516,308.289337 294.268951,305.530762 295.721497,307.990631 
	C293.196655,309.320435 289.406738,309.708435 288.580536,308.093262 
	C286.904388,304.816437 287.185364,300.402863 288.377899,297.016663 
	C289.074768,295.037994 292.819977,295.830444 295.393341,296.726288 
	C294.340637,299.614624 290.374146,296.130737 290.081604,299.647095 
	C289.825195,302.729706 293.308899,300.341095 293.959320,302.297638 
	C293.621277,304.476471 289.599731,301.805511 290.089050,305.500824 
z"/>
<path fill="#43474F" opacity="1.000000" stroke="none" 
	d="
M449.803101,300.669983 
	C450.917297,301.523376 451.697144,302.257294 452.525360,303.036682 
	C454.253296,300.805206 451.985718,296.304321 454.368713,296.545532 
	C457.294586,296.841675 455.265411,300.904236 455.750763,303.268097 
	C455.945160,304.214783 455.786835,305.235291 455.776917,306.222076 
	C455.767059,307.201691 455.813416,308.418274 454.630768,308.564453 
	C454.036835,308.637878 453.311676,307.777649 452.669434,307.307465 
	C450.864624,305.986206 450.754028,302.522675 447.225403,303.611145 
	C445.895416,303.057556 445.848816,301.824219 446.579834,300.624634 
	C447.428162,299.232574 448.487305,300.035034 449.803101,300.669983 
z"/>
<path fill="#0C0C0C" opacity="1.000000" stroke="none" 
	d="
M312.779541,301.745667 
	C312.979919,304.307465 314.198242,306.280975 315.585876,308.193573 
	C313.662170,309.167236 313.389435,307.889648 312.908813,307.247986 
	C311.942261,305.957611 311.383636,304.155029 309.290009,304.382843 
	C306.758179,304.658356 309.133759,307.446289 307.034393,308.374146 
	C305.955383,304.642120 305.862762,300.729797 306.791077,297.350922 
	C307.516144,294.711670 310.959747,295.868530 312.734833,296.932648 
	C314.759583,298.146454 316.646423,300.257324 313.259094,302.351624 
	C312.147736,301.249786 311.595398,300.130493 310.234406,300.059967 
	C310.191925,301.826599 311.843109,300.929260 312.779541,301.745667 
z"/>
<path fill="#2C2C2C" opacity="1.000000" stroke="none" 
	d="
M181.191040,301.782043 
	C179.434326,304.050110 181.213684,306.773407 178.588455,309.726257 
	C178.199463,304.358063 177.282471,299.962097 173.907043,296.031830 
	C177.518295,299.582092 180.646515,301.592896 183.780136,294.691742 
	C184.317520,298.552643 182.365570,299.779877 181.191040,301.782043 
z"/>
<path fill="#2C2C2C" opacity="1.000000" stroke="none" 
	d="
M130.352417,308.623993 
	C124.735046,309.876678 122.902802,307.677094 123.664673,302.562714 
	C123.978287,300.457397 123.716614,298.266418 123.716614,295.467102 
	C126.527695,297.206573 125.728279,298.845795 125.801567,300.187836 
	C125.984856,303.543854 124.540665,307.915894 130.633728,307.110657 
	C130.669556,307.560364 130.705383,308.010101 130.352417,308.623993 
z"/>
<path fill="#565656" opacity="1.000000" stroke="none" 
	d="
M353.660553,296.862457 
	C355.815460,297.614380 355.981384,297.623444 355.789917,301.128601 
	C355.590088,304.786530 355.662415,307.924927 362.135986,306.538086 
	C359.295685,309.738190 356.884583,309.081116 354.932709,308.825012 
	C352.529877,308.509735 353.462891,306.220428 353.398926,304.728180 
	C353.292389,302.243958 353.450562,299.748352 353.660553,296.862457 
z"/>
<path fill="#252525" opacity="1.000000" stroke="none" 
	d="
M419.816498,298.048462 
	C416.676361,298.882324 418.348053,301.085236 417.953705,302.616455 
	C417.448059,304.579834 418.854736,306.915253 416.647339,308.888763 
	C415.023804,306.714966 415.967072,304.368408 415.763458,302.231171 
	C415.552765,300.019745 416.665222,297.073517 411.839661,297.780884 
	C415.095428,295.332001 417.920898,295.901428 420.652679,296.569733 
	C421.303497,296.728973 420.920410,297.651276 419.816498,298.048462 
z"/>
<path fill="#1F1F1F" opacity="1.000000" stroke="none" 
	d="
M162.776718,296.400818 
	C157.827255,299.335510 161.190536,304.796661 159.196915,309.070618 
	C155.754395,305.601044 161.257309,299.098022 154.406494,297.262390 
	C157.044815,295.046539 159.914871,296.523499 162.776718,296.400818 
z"/>
<path fill="#282828" opacity="1.000000" stroke="none" 
	d="
M607.957642,296.388214 
	C603.000305,299.261932 606.383972,304.886627 604.441528,308.949371 
	C600.614990,305.682556 606.595642,299.186676 599.595581,297.326172 
	C602.216431,295.154022 605.040344,296.369843 607.957642,296.388214 
z"/>
<path fill="#1F1F1F" opacity="1.000000" stroke="none" 
	d="
M582.009644,306.597595 
	C582.209717,302.838257 581.528076,299.425659 582.760498,295.265259 
	C584.582336,297.477844 584.053650,299.156860 584.125366,300.665375 
	C584.290039,304.129578 582.641907,308.882050 589.999878,307.212830 
	C586.733459,308.855225 584.221741,310.227753 582.009644,306.597595 
z"/>
<path fill="#1F1F1F" opacity="1.000000" stroke="none" 
	d="
M269.960602,307.605103 
	C270.131744,303.500580 269.251862,299.739532 270.705475,295.363922 
	C272.491150,297.536896 272.089508,299.409760 271.941040,301.024811 
	C271.587463,304.871521 271.913147,307.941986 278.614227,306.878204 
	C274.792023,309.296692 272.459900,309.165558 269.960602,307.605103 
z"/>
<path fill="#252525" opacity="1.000000" stroke="none" 
	d="
M450.001770,300.476959 
	C449.133514,301.759125 445.777100,299.779205 446.960938,303.730957 
	C447.110504,305.657166 447.502563,307.296295 445.895233,309.654968 
	C444.327301,305.091034 445.174164,301.209381 445.081879,297.451599 
	C445.051453,296.212250 446.007965,295.696442 447.021759,296.734711 
	C448.055969,297.793884 448.924835,299.014526 450.001770,300.476959 
z"/>
<path fill="#2C2C2C" opacity="1.000000" stroke="none" 
	d="
M543.978821,306.554077 
	C545.610413,306.622986 547.322021,307.847443 548.104065,305.870514 
	C549.006531,303.589142 546.623291,303.428253 545.036011,302.419128 
	C544.910522,301.746216 545.114136,301.468872 545.677979,301.207397 
	C548.499023,301.852386 551.505615,302.693420 550.752380,305.988098 
	C550.077637,308.939545 547.381470,309.611969 544.222534,308.348022 
	C543.861755,307.735229 543.771484,307.377777 543.978821,306.554077 
z"/>
<path fill="#282828" opacity="1.000000" stroke="none" 
	d="
M141.841324,299.283752 
	C141.961639,297.915558 141.545822,296.708191 142.720078,296.301422 
	C143.498047,296.031891 143.893219,296.805237 143.858932,297.497162 
	C143.677200,301.166138 144.629257,304.939514 142.845367,309.557190 
	C141.200836,305.719666 142.176453,302.650116 141.841324,299.283752 
z"/>
<path fill="#1F1F1F" opacity="1.000000" stroke="none" 
	d="
M431.859283,302.918274 
	C431.859283,300.365814 431.859283,298.269470 431.859283,296.173157 
	C432.464691,296.171265 433.070068,296.169373 433.675476,296.167480 
	C434.242462,300.265747 434.108337,304.390686 433.573914,309.991882 
	C431.303497,307.117767 432.102570,305.130951 431.859283,302.918274 
z"/>
<path fill="#0C0C0C" opacity="1.000000" stroke="none" 
	d="
M545.645935,300.907898 
	C545.716248,301.394379 545.492615,301.634827 545.045471,301.989929 
	C541.859741,300.663452 541.912170,298.438263 544.060120,296.655060 
	C545.999573,295.045013 547.966675,295.883606 549.327271,298.244690 
	C548.029907,299.435028 543.794495,295.579163 545.645935,300.907898 
z"/>
<path fill="#3B4048" opacity="1.000000" stroke="none" 
	d="
M544.186035,305.826782 
	C544.210571,306.420105 544.144958,306.752380 544.015564,307.588684 
	C543.029236,307.768494 542.153809,307.253021 542.404541,306.167694 
	C542.561829,305.486969 543.155823,304.701599 544.186035,305.826782 
z"/>
<path fill="#FDFEFE" opacity="1.000000" stroke="none" 
	d="
M309.087036,44.207611 
	C316.900787,44.209290 324.228943,44.306797 331.552490,44.165920 
	C334.713593,44.105114 335.993530,45.126232 335.965332,48.461361 
	C335.835846,63.778847 335.854706,79.098389 335.955444,94.416298 
	C335.974091,97.253700 334.990173,98.198044 332.190094,98.141617 
	C324.700287,97.990692 317.201447,98.224083 309.714478,98.012238 
	C301.509277,97.780067 294.192413,92.047783 292.072083,84.214554 
	C290.860107,79.737106 289.862457,75.162712 289.270020,70.567284 
	C288.658020,65.820000 292.515076,62.377930 293.701691,58.087662 
	C294.269257,56.035580 295.611481,54.211079 296.433228,52.213737 
	C300.476715,42.385818 298.903381,44.448448 309.087036,44.207611 
z"/>
<path fill="#FAFAFB" opacity="1.000000" stroke="none" 
	d="
M369.948730,118.385719 
	C381.624420,118.041893 393.271606,118.084442 404.917969,118.207909 
	C406.891937,118.228828 408.877197,118.505630 410.831024,118.824860 
	C414.878510,119.486145 416.375549,122.180389 416.089813,125.994392 
	C415.759094,130.409668 412.726807,131.903397 408.865173,131.933212 
	C396.216278,132.030930 383.566345,131.990341 370.446777,132.014359 
	C369.160248,127.620407 368.772308,123.213165 369.948730,118.385719 
z"/>
<path fill="#FDFDFD" opacity="1.000000" stroke="none" 
	d="
M60.181084,214.936020 
	C62.157589,214.929520 63.655190,214.947479 65.152214,214.925659 
	C72.091133,214.824554 78.771492,215.711807 81.983734,222.932678 
	C85.464447,230.757050 85.496307,238.832748 81.142670,246.391418 
	C78.843033,250.383972 74.845314,251.952347 70.179573,252.135803 
	C57.998219,252.614731 58.000954,252.690338 58.000206,240.772354 
	C57.999748,233.452042 57.938446,226.130753 58.055279,218.812317 
	C58.077087,217.446075 56.900154,215.249146 60.181084,214.936020 
z"/>
<path fill="#FDFDFD" opacity="1.000000" stroke="none" 
	d="
M289.311218,133.862274 
	C293.152649,141.018219 292.809082,146.454483 288.497009,151.060593 
	C284.644867,155.175430 278.686951,156.443542 273.463470,154.260422 
	C268.373413,152.133072 264.801971,147.055069 265.158813,141.817932 
	C265.533020,136.326172 267.938202,132.020081 273.320770,129.785568 
	C278.833313,127.497093 284.243164,128.762939 289.311218,133.862274 
z"/>
<path fill="#FAFAFB" opacity="1.000000" stroke="none" 
	d="
M621.218994,254.836197 
	C613.690491,255.735153 610.602051,254.035812 608.375488,248.099823 
	C605.990967,241.742874 607.711121,232.662277 611.864807,229.679016 
	C616.385132,226.432434 622.945740,227.946671 625.565063,232.841064 
	C629.519348,240.230026 627.716125,250.229584 621.218994,254.836197 
z"/>
<path fill="#F5F5F6" opacity="1.000000" stroke="none" 
	d="
M534.334229,245.096069 
	C538.266724,244.302917 541.815796,243.618896 545.367737,242.934311 
	C546.529480,251.441147 543.895264,255.746536 537.115234,256.265106 
	C533.701111,256.526245 530.156555,256.297363 529.192932,252.175049 
	C528.325439,248.463486 530.619080,246.344284 534.334229,245.096069 
z"/>
<path fill="#FAFAFB" opacity="1.000000" stroke="none" 
	d="
M342.165833,243.061844 
	C344.231445,252.058411 340.911377,256.648468 332.982269,256.269562 
	C330.017242,256.127869 327.282257,255.513580 326.865051,251.800751 
	C326.428925,247.919510 328.534729,245.885391 331.989288,245.044540 
	C335.205383,244.261734 338.478577,243.713547 342.165833,243.061844 
z"/>
<path fill="#F5F5F6" opacity="1.000000" stroke="none" 
	d="
M222.925049,237.084686 
	C219.960358,237.084656 217.466141,236.919250 215.002991,237.125214 
	C211.675552,237.403442 211.242523,235.916428 212.455582,233.356888 
	C214.093658,229.900589 216.968872,228.097534 220.736160,228.064545 
	C224.198624,228.034210 227.247650,229.085892 228.984467,232.487610 
	C230.464096,235.385620 230.916977,237.601074 226.384079,237.100815 
	C225.403854,236.992630 224.401520,237.084839 222.925049,237.084686 
z"/>
<path fill="#EEEEEE" opacity="1.000000" stroke="none" 
	d="
M60.923512,298.788177 
	C62.883999,297.752991 64.491951,297.738617 65.880333,298.970184 
	C67.363403,300.285736 68.122200,302.107178 67.054764,303.847778 
	C65.703987,306.050385 65.056252,302.112518 63.519779,303.303833 
	C62.568600,304.450073 64.374680,305.200012 64.162720,306.300995 
	C59.016567,306.358795 57.887039,304.062134 60.923512,298.788177 
z"/>
<path fill="#EEEEEE" opacity="1.000000" stroke="none" 
	d="
M507.881531,298.094360 
	C510.124634,298.847198 511.168396,300.033264 509.620483,301.770905 
	C508.968567,302.502747 507.229523,303.263367 506.577637,302.250031 
	C505.740784,300.949036 504.774567,298.922943 507.881531,298.094360 
z"/>
<path fill="#EEEEEE" opacity="1.000000" stroke="none" 
	d="
M377.190552,299.813110 
	C377.862732,300.346191 378.398773,301.159210 378.727722,302.048767 
	C378.979370,302.729095 379.433624,303.722595 378.316895,304.039398 
	C377.598389,304.243225 376.616608,304.254547 375.999939,303.909943 
	C375.071625,303.391174 375.822906,302.506439 376.054504,301.826416 
	C376.259033,301.225891 376.654297,300.690308 377.190552,299.813110 
z"/>
<path fill="#EEEEEE" opacity="1.000000" stroke="none" 
	d="
M105.023697,303.382324 
	C105.453041,301.940765 105.899071,300.876465 106.402382,299.675476 
	C108.219841,300.409119 108.673767,302.480804 108.415840,303.584198 
	C108.133644,304.791443 106.255829,304.381592 105.023697,303.382324 
z"/>
<path fill="#EEEEEE" opacity="1.000000" stroke="none" 
	d="
M251.205338,303.307770 
	C252.047623,302.104431 251.526749,299.940613 253.304855,300.334869 
	C253.957016,300.479492 254.847046,302.382141 254.605194,303.167847 
	C254.010513,305.099823 252.461182,304.243408 251.205338,303.307770 
z"/>
<path fill="#EEEEEE" opacity="1.000000" stroke="none" 
	d="
M312.999939,301.960297 
	C311.593201,301.207550 309.868958,304.085754 308.712677,301.781921 
	C308.205017,300.770355 307.768524,298.726044 309.218109,298.291809 
	C311.320038,297.662140 313.189331,298.414490 312.926331,301.665710 
	C312.930359,302.057739 312.956726,301.972076 312.999939,301.960297 
z"/>
</svg>